# xmcd
# 
# Track frame offsets:
#     150
#     24314
#     48204
#     65689
#     86774
#     107928
#     136091
#     161281
#     181817
#     199010
#     216645
#     230246
#     252286
#     270397
#     287490
#     310203
#     324762
#     344600
# 
# Disc length: 4799
# 
# Revision: 1
# Processed by: cddbd v1.5.2PL0 Copyright (c) Steve Scherf et al.
# Submitted via: fre:ac v1.0.17
# 
DISCID=0412bd12
DTITLE=Elton John - Rocket Man - The Definitive Hits
DYEAR=0
DGENRE=Pop
TTITLE0=Bennie And The Jets
TTITLE1=Philadelphia Freedom
TTITLE2=Daniel
TTITLE3=Rocket Man (I Think It's Going To Be a Long Long Time)
TTITLE4=I Guess That's Why They Call It The Blues
TTITLE5=Tiny Dancer
TTITLE6=Don't Let The Sun Go Down On Me
TTITLE7=Don't Go Breaking My Heart (With Kiki Dee)
TTITLE8=Candle In The Wind
TTITLE9=Crocodile Rock
TTITLE10=I'm Still Standing
TTITLE11=Saturday Night's Alright (For Fighting)
TTITLE12=Your Song
TTITLE13=Sorry Seems To Be The Hardest Word
TTITLE14=Sacrifice
TTITLE15=Goodbye Yellow Brick Road
TTITLE16=Tinderbox
TTITLE17=Blue Eyes
EXTD=
EXTT0=
EXTT1=
EXTT2=
EXTT3=
EXTT4=
EXTT5=
EXTT6=
EXTT7=
EXTT8=
EXTT9=
EXTT10=
EXTT11=
EXTT12=
EXTT13=
EXTT14=
EXTT15=
EXTT16=
EXTT17=
PLAYORDER=
